<svg width="95" height="41" viewBox="0 0 95 41" fill="none" xmlns="http://www.w3.org/2000/svg">
<g clip-path="url(#clip0)">
<path d="M30.2989 41V0.112534H41.5634C46.1696 0.112534 49.654 1.00656 52.0165 2.7946C54.379 4.58265 55.5601 7.18005 55.5597 10.5868C55.5597 13.0583 54.9031 15.1082 53.5898 16.7365C52.2765 18.3649 50.424 19.4038 48.0323 19.8532C50.7372 20.1901 52.9915 21.3086 54.7952 23.2089C56.599 25.1091 57.4996 27.2865 57.4971 29.7412C57.4971 33.2244 56.3159 35.972 53.9533 37.9841C51.5908 39.9961 48.3027 41.0014 44.0891 41H30.2989ZM31.8871 19.297H42.1491C46.0495 19.297 48.9898 18.5803 50.9701 17.147C52.9504 15.7137 53.9404 13.4879 53.94 10.4694C53.94 4.65946 49.9312 1.70731 41.9136 1.61299H31.8871V19.297ZM31.8871 20.7974V39.4995H44.2658C47.8926 39.4995 50.7398 38.6421 52.8077 36.9273C54.8755 35.2125 55.9096 32.835 55.91 29.7948C55.91 27.2076 54.9102 25.075 52.9107 23.397C50.9112 21.7189 48.2355 20.8524 44.8835 20.7974H31.8871Z" fill="#7793ED"/>
<path d="M77.1818 37.0131L78.0359 39.484L78.8901 37.0131L93.266 0.112534H95L79.0044 41H77.0638L61.0681 0.112534H62.8032L77.1818 37.0131Z" fill="#7793ED"/>
<path d="M20.9541 0V40.9946" stroke="#7793ED" stroke-width="2" stroke-miterlimit="10"/>
<path d="M10.7039 3.85832V37.4043" stroke="#7793ED" stroke-width="2" stroke-miterlimit="10"/>
<path d="M0.400391 10.0209V31.2149" stroke="#7793ED" stroke-width="2" stroke-miterlimit="10"/>
</g>
<defs>
<clipPath id="clip0">
<rect width="95" height="41" fill="white"/>
</clipPath>
</defs>
</svg>
